<mxfile host="app.diagrams.net" modified="2023-09-12T15:02:16.563Z" agent="Mozilla/5.0 (Windows NT 10.0; Win64; x64) AppleWebKit/537.36 (KHTML, like Gecko) Chrome/116.0.0.0 Safari/537.36 Edg/116.0.1938.69" etag="GQ_vzTAaIh5JdQRvkg-F" version="21.7.4" type="device">
  <diagram id="C5RBs43oDa-KdzZeNtuy" name="Page-1">
    <mxGraphModel dx="872" dy="473" grid="1" gridSize="10" guides="1" tooltips="1" connect="1" arrows="1" fold="1" page="1" pageScale="1" pageWidth="827" pageHeight="1169" math="0" shadow="0">
      <root>
        <mxCell id="WIyWlLk6GJQsqaUBKTNV-0" />
        <mxCell id="WIyWlLk6GJQsqaUBKTNV-1" parent="WIyWlLk6GJQsqaUBKTNV-0" />
        <mxCell id="A9qOQMDA3IsSoKH6Uclx-0" value="Escolher opção de empréstimo no sistema" style="rounded=1;whiteSpace=wrap;html=1;arcSize=40;fillColor=#ffcd28;strokeColor=#d79b00;gradientColor=#ffa500;" vertex="1" parent="WIyWlLk6GJQsqaUBKTNV-1">
          <mxGeometry x="30" y="100" width="120" height="40" as="geometry" />
        </mxCell>
        <mxCell id="A9qOQMDA3IsSoKH6Uclx-39" style="edgeStyle=orthogonalEdgeStyle;rounded=0;orthogonalLoop=1;jettySize=auto;html=1;exitX=1;exitY=0.5;exitDx=0;exitDy=0;" edge="1" parent="WIyWlLk6GJQsqaUBKTNV-1" source="A9qOQMDA3IsSoKH6Uclx-2" target="A9qOQMDA3IsSoKH6Uclx-7">
          <mxGeometry relative="1" as="geometry" />
        </mxCell>
        <mxCell id="A9qOQMDA3IsSoKH6Uclx-2" value="inserir ISBN do livro e ID do leitor" style="rounded=1;whiteSpace=wrap;html=1;arcSize=40;fillColor=#ffcd28;strokeColor=#d79b00;gradientColor=#ffa500;" vertex="1" parent="WIyWlLk6GJQsqaUBKTNV-1">
          <mxGeometry x="30" y="200" width="120" height="40" as="geometry" />
        </mxCell>
        <mxCell id="A9qOQMDA3IsSoKH6Uclx-46" value="" style="edgeStyle=orthogonalEdgeStyle;rounded=0;orthogonalLoop=1;jettySize=auto;html=1;" edge="1" parent="WIyWlLk6GJQsqaUBKTNV-1" source="A9qOQMDA3IsSoKH6Uclx-4" target="A9qOQMDA3IsSoKH6Uclx-0">
          <mxGeometry relative="1" as="geometry" />
        </mxCell>
        <mxCell id="A9qOQMDA3IsSoKH6Uclx-49" value="s" style="edgeLabel;html=1;align=center;verticalAlign=middle;resizable=0;points=[];" vertex="1" connectable="0" parent="A9qOQMDA3IsSoKH6Uclx-46">
          <mxGeometry x="-0.7333" relative="1" as="geometry">
            <mxPoint as="offset" />
          </mxGeometry>
        </mxCell>
        <mxCell id="A9qOQMDA3IsSoKH6Uclx-51" style="edgeStyle=orthogonalEdgeStyle;rounded=0;orthogonalLoop=1;jettySize=auto;html=1;exitX=0.5;exitY=0;exitDx=0;exitDy=0;entryX=0.5;entryY=0;entryDx=0;entryDy=0;" edge="1" parent="WIyWlLk6GJQsqaUBKTNV-1" source="A9qOQMDA3IsSoKH6Uclx-4" target="A9qOQMDA3IsSoKH6Uclx-37">
          <mxGeometry relative="1" as="geometry" />
        </mxCell>
        <mxCell id="A9qOQMDA3IsSoKH6Uclx-52" value="N" style="edgeLabel;html=1;align=center;verticalAlign=middle;resizable=0;points=[];" vertex="1" connectable="0" parent="A9qOQMDA3IsSoKH6Uclx-51">
          <mxGeometry x="-0.956" y="-1" relative="1" as="geometry">
            <mxPoint as="offset" />
          </mxGeometry>
        </mxCell>
        <mxCell id="A9qOQMDA3IsSoKH6Uclx-4" value="tentar novamente°" style="rhombus;whiteSpace=wrap;html=1;fillColor=#ffcd28;strokeColor=#d79b00;gradientColor=#ffa500;" vertex="1" parent="WIyWlLk6GJQsqaUBKTNV-1">
          <mxGeometry x="240" y="100" width="80" height="40" as="geometry" />
        </mxCell>
        <mxCell id="A9qOQMDA3IsSoKH6Uclx-53" style="edgeStyle=orthogonalEdgeStyle;rounded=0;orthogonalLoop=1;jettySize=auto;html=1;exitX=1;exitY=0.5;exitDx=0;exitDy=0;entryX=0.5;entryY=1;entryDx=0;entryDy=0;" edge="1" parent="WIyWlLk6GJQsqaUBKTNV-1" source="A9qOQMDA3IsSoKH6Uclx-7" target="A9qOQMDA3IsSoKH6Uclx-16">
          <mxGeometry relative="1" as="geometry" />
        </mxCell>
        <mxCell id="A9qOQMDA3IsSoKH6Uclx-54" value="N" style="edgeLabel;html=1;align=center;verticalAlign=middle;resizable=0;points=[];" vertex="1" connectable="0" parent="A9qOQMDA3IsSoKH6Uclx-53">
          <mxGeometry x="-0.8741" y="-1" relative="1" as="geometry">
            <mxPoint as="offset" />
          </mxGeometry>
        </mxCell>
        <mxCell id="A9qOQMDA3IsSoKH6Uclx-55" style="edgeStyle=orthogonalEdgeStyle;rounded=0;orthogonalLoop=1;jettySize=auto;html=1;exitX=0.5;exitY=1;exitDx=0;exitDy=0;entryX=0.5;entryY=0;entryDx=0;entryDy=0;" edge="1" parent="WIyWlLk6GJQsqaUBKTNV-1" source="A9qOQMDA3IsSoKH6Uclx-7" target="A9qOQMDA3IsSoKH6Uclx-11">
          <mxGeometry relative="1" as="geometry" />
        </mxCell>
        <mxCell id="A9qOQMDA3IsSoKH6Uclx-56" value="s" style="edgeLabel;html=1;align=center;verticalAlign=middle;resizable=0;points=[];" vertex="1" connectable="0" parent="A9qOQMDA3IsSoKH6Uclx-55">
          <mxGeometry x="-0.45" y="1" relative="1" as="geometry">
            <mxPoint as="offset" />
          </mxGeometry>
        </mxCell>
        <mxCell id="A9qOQMDA3IsSoKH6Uclx-7" value="Leitor resgistrado°" style="rhombus;whiteSpace=wrap;html=1;fillColor=#ffcd28;strokeColor=#d79b00;gradientColor=#ffa500;" vertex="1" parent="WIyWlLk6GJQsqaUBKTNV-1">
          <mxGeometry x="240" y="200" width="80" height="40" as="geometry" />
        </mxCell>
        <mxCell id="A9qOQMDA3IsSoKH6Uclx-57" style="edgeStyle=orthogonalEdgeStyle;rounded=0;orthogonalLoop=1;jettySize=auto;html=1;exitX=0.5;exitY=1;exitDx=0;exitDy=0;" edge="1" parent="WIyWlLk6GJQsqaUBKTNV-1" source="A9qOQMDA3IsSoKH6Uclx-11" target="A9qOQMDA3IsSoKH6Uclx-14">
          <mxGeometry relative="1" as="geometry" />
        </mxCell>
        <mxCell id="A9qOQMDA3IsSoKH6Uclx-58" value="s" style="edgeLabel;html=1;align=center;verticalAlign=middle;resizable=0;points=[];" vertex="1" connectable="0" parent="A9qOQMDA3IsSoKH6Uclx-57">
          <mxGeometry x="-0.6" relative="1" as="geometry">
            <mxPoint as="offset" />
          </mxGeometry>
        </mxCell>
        <mxCell id="A9qOQMDA3IsSoKH6Uclx-59" style="edgeStyle=orthogonalEdgeStyle;rounded=0;orthogonalLoop=1;jettySize=auto;html=1;exitX=0;exitY=0.5;exitDx=0;exitDy=0;entryX=1;entryY=0.5;entryDx=0;entryDy=0;" edge="1" parent="WIyWlLk6GJQsqaUBKTNV-1" source="A9qOQMDA3IsSoKH6Uclx-11" target="A9qOQMDA3IsSoKH6Uclx-40">
          <mxGeometry relative="1" as="geometry" />
        </mxCell>
        <mxCell id="A9qOQMDA3IsSoKH6Uclx-60" value="N" style="edgeLabel;html=1;align=center;verticalAlign=middle;resizable=0;points=[];" vertex="1" connectable="0" parent="A9qOQMDA3IsSoKH6Uclx-59">
          <mxGeometry x="-0.8211" y="-1" relative="1" as="geometry">
            <mxPoint as="offset" />
          </mxGeometry>
        </mxCell>
        <mxCell id="A9qOQMDA3IsSoKH6Uclx-11" value="Livro registrado°" style="rhombus;whiteSpace=wrap;html=1;fillColor=#ffcd28;strokeColor=#d79b00;gradientColor=#ffa500;" vertex="1" parent="WIyWlLk6GJQsqaUBKTNV-1">
          <mxGeometry x="240" y="280" width="80" height="40" as="geometry" />
        </mxCell>
        <mxCell id="A9qOQMDA3IsSoKH6Uclx-35" style="edgeStyle=orthogonalEdgeStyle;rounded=0;orthogonalLoop=1;jettySize=auto;html=1;exitX=1;exitY=0.5;exitDx=0;exitDy=0;entryX=0;entryY=0.5;entryDx=0;entryDy=0;" edge="1" parent="WIyWlLk6GJQsqaUBKTNV-1" source="A9qOQMDA3IsSoKH6Uclx-14" target="A9qOQMDA3IsSoKH6Uclx-18">
          <mxGeometry relative="1" as="geometry" />
        </mxCell>
        <mxCell id="A9qOQMDA3IsSoKH6Uclx-14" value="Realizar empréstimo" style="rounded=1;whiteSpace=wrap;html=1;arcSize=40;fillColor=#ffcd28;strokeColor=#d79b00;gradientColor=#ffa500;" vertex="1" parent="WIyWlLk6GJQsqaUBKTNV-1">
          <mxGeometry x="220" y="370" width="120" height="40" as="geometry" />
        </mxCell>
        <mxCell id="A9qOQMDA3IsSoKH6Uclx-34" style="edgeStyle=orthogonalEdgeStyle;rounded=0;orthogonalLoop=1;jettySize=auto;html=1;exitX=0;exitY=0.5;exitDx=0;exitDy=0;entryX=1;entryY=0.5;entryDx=0;entryDy=0;" edge="1" parent="WIyWlLk6GJQsqaUBKTNV-1" source="A9qOQMDA3IsSoKH6Uclx-16" target="A9qOQMDA3IsSoKH6Uclx-4">
          <mxGeometry relative="1" as="geometry" />
        </mxCell>
        <mxCell id="A9qOQMDA3IsSoKH6Uclx-16" value="Registrar Leitor" style="rounded=1;whiteSpace=wrap;html=1;arcSize=40;fillColor=#ffcd28;strokeColor=#d79b00;gradientColor=#ffa500;" vertex="1" parent="WIyWlLk6GJQsqaUBKTNV-1">
          <mxGeometry x="450" y="100" width="120" height="40" as="geometry" />
        </mxCell>
        <mxCell id="A9qOQMDA3IsSoKH6Uclx-36" style="edgeStyle=orthogonalEdgeStyle;rounded=0;orthogonalLoop=1;jettySize=auto;html=1;exitX=1;exitY=0.25;exitDx=0;exitDy=0;" edge="1" parent="WIyWlLk6GJQsqaUBKTNV-1">
          <mxGeometry relative="1" as="geometry">
            <mxPoint x="660" y="260" as="targetPoint" />
            <mxPoint x="610" y="390" as="sourcePoint" />
            <Array as="points">
              <mxPoint x="661" y="390" />
            </Array>
          </mxGeometry>
        </mxCell>
        <mxCell id="A9qOQMDA3IsSoKH6Uclx-18" value="Gravar histórico de empréstimo" style="rounded=1;whiteSpace=wrap;html=1;arcSize=40;fillColor=#ffcd28;strokeColor=#d79b00;gradientColor=#ffa500;" vertex="1" parent="WIyWlLk6GJQsqaUBKTNV-1">
          <mxGeometry x="480" y="380" width="120" height="40" as="geometry" />
        </mxCell>
        <mxCell id="A9qOQMDA3IsSoKH6Uclx-32" value="" style="ellipse;html=1;shape=startState;fillColor=#000000;strokeColor=#ff0000;" vertex="1" parent="WIyWlLk6GJQsqaUBKTNV-1">
          <mxGeometry x="75" y="10" width="30" height="30" as="geometry" />
        </mxCell>
        <mxCell id="A9qOQMDA3IsSoKH6Uclx-37" value="" style="ellipse;html=1;shape=endState;fillColor=#000000;strokeColor=#ff0000;" vertex="1" parent="WIyWlLk6GJQsqaUBKTNV-1">
          <mxGeometry x="640" y="230" width="30" height="30" as="geometry" />
        </mxCell>
        <mxCell id="A9qOQMDA3IsSoKH6Uclx-61" style="edgeStyle=orthogonalEdgeStyle;rounded=0;orthogonalLoop=1;jettySize=auto;html=1;exitX=0;exitY=0.5;exitDx=0;exitDy=0;entryX=0.5;entryY=1;entryDx=0;entryDy=0;" edge="1" parent="WIyWlLk6GJQsqaUBKTNV-1" source="A9qOQMDA3IsSoKH6Uclx-40" target="A9qOQMDA3IsSoKH6Uclx-4">
          <mxGeometry relative="1" as="geometry">
            <mxPoint x="280" y="180" as="targetPoint" />
            <Array as="points">
              <mxPoint x="11" y="390" />
              <mxPoint x="11" y="160" />
              <mxPoint x="280" y="160" />
            </Array>
          </mxGeometry>
        </mxCell>
        <mxCell id="A9qOQMDA3IsSoKH6Uclx-40" value="Retornar mensagem" style="rounded=1;whiteSpace=wrap;html=1;arcSize=40;fillColor=#ffcd28;strokeColor=#d79b00;gradientColor=#ffa500;" vertex="1" parent="WIyWlLk6GJQsqaUBKTNV-1">
          <mxGeometry x="20" y="370" width="120" height="40" as="geometry" />
        </mxCell>
        <mxCell id="A9qOQMDA3IsSoKH6Uclx-65" value="" style="edgeStyle=orthogonalEdgeStyle;html=1;verticalAlign=bottom;endArrow=open;endSize=8;strokeColor=#ff0000;rounded=0;exitX=0.5;exitY=1;exitDx=0;exitDy=0;" edge="1" source="A9qOQMDA3IsSoKH6Uclx-0" parent="WIyWlLk6GJQsqaUBKTNV-1">
          <mxGeometry relative="1" as="geometry">
            <mxPoint x="84" y="200" as="targetPoint" />
            <mxPoint x="90" y="290" as="sourcePoint" />
            <Array as="points">
              <mxPoint x="84" y="140" />
            </Array>
          </mxGeometry>
        </mxCell>
        <mxCell id="A9qOQMDA3IsSoKH6Uclx-67" value="" style="edgeStyle=orthogonalEdgeStyle;html=1;verticalAlign=bottom;endArrow=open;endSize=8;strokeColor=#ff0000;rounded=0;entryX=0.5;entryY=0;entryDx=0;entryDy=0;exitX=0.5;exitY=1;exitDx=0;exitDy=0;" edge="1" source="A9qOQMDA3IsSoKH6Uclx-32" parent="WIyWlLk6GJQsqaUBKTNV-1" target="A9qOQMDA3IsSoKH6Uclx-0">
          <mxGeometry relative="1" as="geometry">
            <mxPoint x="90" y="50" as="targetPoint" />
            <mxPoint x="90" y="80" as="sourcePoint" />
          </mxGeometry>
        </mxCell>
      </root>
    </mxGraphModel>
  </diagram>
</mxfile>
